# xmcd CD database file
#
# Track frame offsets:
#	150
#	20677
#	41792
#	59397
#	79710
#	100782
#	120102
#	138195
#	157810
#	175967
#	194632
#	215542
#	243882
#
# Disc length: 3530 seconds
#
# Revision: 1
# Processed by: cddbd v1.5.2PL0 Copyright (c) Steve Scherf et al.
# Submitted via: CDex 1.70beta3
#
DISCID=a70dc80d
DTITLE=Statetrooper - The Calling
DYEAR=2004
DGENRE=Melodic Hard Rock
TTITLE0=The Calling
TTITLE1=Casablanca
TTITLE2=I'm Alive
TTITLE3=Amerasians
TTITLE4=Love Lies Bleeding
TTITLE5=D.O.A
TTITLE6=Marionetts (The Puppets Of War)
TTITLE7=Don't Say Goodbye
TTITLE8=How Does It Feel
TTITLE9=Twilight's Last Gleaming
TTITLE10=I Believe
TTITLE11=Compadres In Chaos
TTITLE12=(video)
EXTD=YEAR: 2004
EXTT0=
EXTT1=
EXTT2=
EXTT3=
EXTT4=
EXTT5=
EXTT6=
EXTT7=
EXTT8=
EXTT9=
EXTT10=
EXTT11=
EXTT12=
PLAYORDER=
